<svg id="Layer_1" enable-background="new 0 0 509.514 509.514" height="512" viewBox="0 0 509.514 509.514" width="512" xmlns="http://www.w3.org/2000/svg"><g><path d="m392.15 221.383-74.644 17.833v245.754c0 13.403 10.572 24.268 23.975 24.268s24.268-10.865 24.268-24.268v-193.977h10.478v193.977c0 13.403 10.865 24.268 24.268 24.268s24.273-10.865 24.273-24.268v-292.314l-16.098 18.668c-4.316 5.002-10.095 8.521-16.52 10.059z"/><path d="m424.595 97.187c-16.631 0-134.775 0-144.21 0 12.043 9.811 20.235 24.184 21.89 40.447h15.23v36.803l50.096-11.957 36.324-24.846-30.161 34.966-86.529 20.713c-10.862 2.6-17.56 13.513-14.959 24.376 2.596 10.846 13.495 17.564 24.375 14.96l92.874-22.231c4.125-.988 7.835-3.247 10.605-6.458l47.923-55.558c17.347-20.114 3.005-51.215-23.458-51.215z"/><ellipse cx="370.714" cy="41.914" rx="41.913" ry="41.914" transform="matrix(.999 -.045 .045 .999 -1.519 16.842)"/><ellipse cx="187.49" cy="69.293" rx="41.752" ry="41.751" transform="matrix(.987 -.16 .16 .987 -8.679 30.927)"/><path d="m261.308 220.313c-4.05-16.919 6.383-33.917 23.302-37.968l5.814-1.392-.188-37.465c-.131-26.155-21.518-47.434-47.673-47.434h-8.486c-9.292 16.113-26.687 26.99-46.586 26.99s-37.294-10.877-46.586-26.99h-6.492c-4.721 0-9.293 1.658-12.916 4.686l-58.587 48.947c-5.506 4.6-8.15 11.782-6.941 18.854l12.312 72.014c-8.717 6.3-14.404 16.543-14.404 28.095v31.634c0 5.523 4.477 10 10 10s10-4.477 10-10v-31.634c0-1.621.275-3.177.764-4.636 4.487 5.866 11.876 8.925 19.395 7.64 3.446-.589 6.535-2.023 9.095-4.049.083 1.16.04 129.283.053 231.571 0 5.523 4.477 10 10 10s10-4.477 10-10v-230.525c0-11.364-5.499-21.467-13.975-27.79l-11.571-67.685 37.177-31.056v342.606c0 13.351 10.828 24.174 24.179 24.174s24.174-10.823 24.174-24.174v-195.614h10.438v196.228c0 13.351 10.823 24.174 24.174 24.174s24.231-10.823 24.231-24.174v-348.995c4.051 0 8.287 3.295 8.308 7.346v148c.056 11.092 9.435 20.044 20.514 20.044h.104c11.126-.056 20.1-9.12 20.044-20.246l-.236-47.026c-13.771-.518-26.072-10.093-29.437-24.15z"/></g></svg>